<mxfile host="app.diagrams.net" modified="2023-11-15T17:08:30.711Z" agent="Mozilla/5.0 (Windows NT 10.0; Win64; x64) AppleWebKit/537.36 (KHTML, like Gecko) Chrome/116.0.5845.837 YaBrowser/23.9.4.837 Yowser/2.5 Safari/537.36" version="22.1.1" etag="cN2l_PKNbPjJb9_hTjMp" type="github">
  <diagram name="Страница — 1" id="3qNJ1kw1siFA0dhFHgTY">
    <mxGraphModel>
      <root>
        <mxCell id="0" />
        <mxCell id="1" parent="0" />
      </root>
    </mxGraphModel>
  </diagram>
</mxfile>
